<svg xmlns="http://www.w3.org/2000/svg" viewBox="0 0 820 380" font-family="Segoe UI, Arial, sans-serif">
  <defs>
    <linearGradient id="stepGrad" x1="0%" y1="0%" x2="100%" y2="0%">
      <stop offset="0%" style="stop-color:#8b5cf6"/>
      <stop offset="100%" style="stop-color:#a78bfa"/>
    </linearGradient>
    <linearGradient id="startGrad" x1="0%" y1="0%" x2="100%" y2="0%">
      <stop offset="0%" style="stop-color:#10b981"/>
      <stop offset="100%" style="stop-color:#34d399"/>
    </linearGradient>
    <filter id="shadow">
      <feDropShadow dx="0" dy="2" stdDeviation="3" flood-opacity="0.2"/>
    </filter>
    <marker id="arrow" viewBox="0 0 10 10" refX="5" refY="5" markerWidth="6" markerHeight="6" orient="auto-start-auto">
      <path d="M 0 0 L 10 5 L 0 10 z" fill="#475569"/>
    </marker>

    <!-- Lucide 风格图标组件 -->
    <symbol id="icon-gamepad" viewBox="0 0 24 24">
      <line x1="6" y1="12" x2="10" y2="12" stroke="currentColor" stroke-width="2" stroke-linecap="round"/>
      <line x1="8" y1="10" x2="8" y2="14" stroke="currentColor" stroke-width="2" stroke-linecap="round"/>
      <line x1="15" y1="13" x2="15.01" y2="13" stroke="currentColor" stroke-width="2" stroke-linecap="round"/>
      <line x1="18" y1="11" x2="18.01" y2="11" stroke="currentColor" stroke-width="2" stroke-linecap="round"/>
      <path d="M17.32 5H6.68a4 4 0 0 0-3.978 3.59c-.006.052-.01.101-.017.152C2.604 9.416 2 14.456 2 16a3 3 0 0 0 3 3c1 0 1.5-.5 2-1l1.414-1.414A2 2 0 0 1 9.828 16h4.344a2 2 0 0 1 1.414.586L17 18c.5.5 1 1 2 1a3 3 0 0 0 3-3c0-1.545-.604-6.584-.685-7.258-.007-.05-.011-.1-.017-.151A4 4 0 0 0 17.32 5z" fill="none" stroke="currentColor" stroke-width="2"/>
    </symbol>
    <symbol id="icon-home" viewBox="0 0 24 24">
      <path d="m3 9 9-7 9 7v11a2 2 0 0 1-2 2H5a2 2 0 0 1-2-2z" fill="none" stroke="currentColor" stroke-width="2"/>
      <polyline points="9,22 9,12 15,12 15,22" fill="none" stroke="currentColor" stroke-width="2"/>
    </symbol>
    <symbol id="icon-globe" viewBox="0 0 24 24">
      <circle cx="12" cy="12" r="10" fill="none" stroke="currentColor" stroke-width="2"/>
      <path d="M12 2a14.5 14.5 0 0 0 0 20 14.5 14.5 0 0 0 0-20" fill="none" stroke="currentColor" stroke-width="2"/>
      <path d="M2 12h20" fill="none" stroke="currentColor" stroke-width="2"/>
    </symbol>
    <symbol id="icon-user" viewBox="0 0 24 24">
      <circle cx="12" cy="8" r="4" fill="none" stroke="currentColor" stroke-width="2"/>
      <path d="M20 21a8 8 0 1 0-16 0" fill="none" stroke="currentColor" stroke-width="2" stroke-linecap="round"/>
    </symbol>
    <symbol id="icon-scroll-text" viewBox="0 0 24 24">
      <path d="M8 21h12a2 2 0 0 0 2-2v-2H10v2a2 2 0 1 1-4 0V5a2 2 0 1 0-4 0v3h4" fill="none" stroke="currentColor" stroke-width="2"/>
      <path d="M19 17V5a2 2 0 0 0-2-2H4" fill="none" stroke="currentColor" stroke-width="2" stroke-linecap="round"/>
      <path d="M15 8h-5M15 12h-5" fill="none" stroke="currentColor" stroke-width="2" stroke-linecap="round"/>
    </symbol>
    <symbol id="icon-check-circle" viewBox="0 0 24 24">
      <circle cx="12" cy="12" r="10" fill="none" stroke="currentColor" stroke-width="2"/>
      <path d="m9 12 2 2 4-4" fill="none" stroke="currentColor" stroke-width="2" stroke-linecap="round" stroke-linejoin="round"/>
    </symbol>
    <symbol id="icon-search" viewBox="0 0 24 24">
      <circle cx="11" cy="11" r="8" fill="none" stroke="currentColor" stroke-width="2"/>
      <path d="m21 21-4.3-4.3" fill="none" stroke="currentColor" stroke-width="2" stroke-linecap="round"/>
    </symbol>
    <symbol id="icon-eye" viewBox="0 0 24 24">
      <path d="M2 12s3-7 10-7 10 7 10 7-3 7-10 7-10-7-10-7Z" fill="none" stroke="currentColor" stroke-width="2"/>
      <circle cx="12" cy="12" r="3" fill="none" stroke="currentColor" stroke-width="2"/>
    </symbol>
    <symbol id="icon-layout-grid" viewBox="0 0 24 24">
      <rect width="7" height="7" x="3" y="3" rx="1" fill="none" stroke="currentColor" stroke-width="2"/>
      <rect width="7" height="7" x="14" y="3" rx="1" fill="none" stroke="currentColor" stroke-width="2"/>
      <rect width="7" height="7" x="14" y="14" rx="1" fill="none" stroke="currentColor" stroke-width="2"/>
      <rect width="7" height="7" x="3" y="14" rx="1" fill="none" stroke="currentColor" stroke-width="2"/>
    </symbol>
    <symbol id="icon-plus" viewBox="0 0 24 24">
      <path d="M5 12h14M12 5v14" fill="none" stroke="currentColor" stroke-width="2" stroke-linecap="round"/>
    </symbol>
    <symbol id="icon-file-json" viewBox="0 0 24 24">
      <path d="M15 2H6a2 2 0 0 0-2 2v16a2 2 0 0 0 2 2h12a2 2 0 0 0 2-2V7Z" fill="none" stroke="currentColor" stroke-width="2"/>
      <path d="M14 2v4a2 2 0 0 0 2 2h4" fill="none" stroke="currentColor" stroke-width="2"/>
      <path d="M10 12h1a1 1 0 0 1 1 1v1a1 1 0 0 1-1 1h-1M8 18h1a1 1 0 0 0 1-1v-1a1 1 0 0 0-1-1H8" fill="none" stroke="currentColor" stroke-width="2" stroke-linecap="round"/>
    </symbol>
    <symbol id="icon-database" viewBox="0 0 24 24">
      <ellipse cx="12" cy="5" rx="9" ry="3" fill="none" stroke="currentColor" stroke-width="2"/>
      <path d="M3 5v14c0 1.66 4.03 3 9 3s9-1.34 9-3V5" fill="none" stroke="currentColor" stroke-width="2"/>
      <path d="M3 12c0 1.66 4.03 3 9 3s9-1.34 9-3" fill="none" stroke="currentColor" stroke-width="2"/>
    </symbol>
    <symbol id="icon-user-circle" viewBox="0 0 24 24">
      <circle cx="12" cy="12" r="10" fill="none" stroke="currentColor" stroke-width="2"/>
      <circle cx="12" cy="10" r="3" fill="none" stroke="currentColor" stroke-width="2"/>
      <path d="M7 20.662V19a2 2 0 0 1 2-2h6a2 2 0 0 1 2 2v1.662" fill="none" stroke="currentColor" stroke-width="2" stroke-linecap="round"/>
    </symbol>
    <symbol id="icon-briefcase" viewBox="0 0 24 24">
      <rect width="20" height="14" x="2" y="7" rx="2" fill="none" stroke="currentColor" stroke-width="2"/>
      <path d="M16 21V5a2 2 0 0 0-2-2h-4a2 2 0 0 0-2 2v16" fill="none" stroke="currentColor" stroke-width="2"/>
    </symbol>
    <symbol id="icon-bar-chart" viewBox="0 0 24 24">
      <line x1="12" y1="20" x2="12" y2="10" stroke="currentColor" stroke-width="2" stroke-linecap="round"/>
      <line x1="18" y1="20" x2="18" y2="4" stroke="currentColor" stroke-width="2" stroke-linecap="round"/>
      <line x1="6" y1="20" x2="6" y2="16" stroke="currentColor" stroke-width="2" stroke-linecap="round"/>
    </symbol>
    <symbol id="icon-swords" viewBox="0 0 24 24">
      <path d="M14.5 17.5L3 6V3h3l11.5 11.5" fill="none" stroke="currentColor" stroke-width="2" stroke-linecap="round" stroke-linejoin="round"/>
      <path d="m13 19 6-6M16 16l4 4M19 21l2-2" fill="none" stroke="currentColor" stroke-width="2" stroke-linecap="round" stroke-linejoin="round"/>
      <path d="m14.5 6.5 3 3M3 21l2-2" fill="none" stroke="currentColor" stroke-width="2" stroke-linecap="round" stroke-linejoin="round"/>
    </symbol>
    <symbol id="icon-users" viewBox="0 0 24 24">
      <path d="M16 21v-2a4 4 0 0 0-4-4H6a4 4 0 0 0-4 4v2" fill="none" stroke="currentColor" stroke-width="2"/>
      <circle cx="9" cy="7" r="4" fill="none" stroke="currentColor" stroke-width="2"/>
      <path d="M22 21v-2a4 4 0 0 0-3-3.87M16 3.13a4 4 0 0 1 0 7.75" fill="none" stroke="currentColor" stroke-width="2"/>
    </symbol>
    <symbol id="icon-sparkles" viewBox="0 0 24 24">
      <path d="m12 3-1.912 5.813a2 2 0 0 1-1.275 1.275L3 12l5.813 1.912a2 2 0 0 1 1.275 1.275L12 21l1.912-5.813a2 2 0 0 1 1.275-1.275L21 12l-5.813-1.912a2 2 0 0 1-1.275-1.275L12 3Z" fill="none" stroke="currentColor" stroke-width="2" stroke-linecap="round" stroke-linejoin="round"/>
      <path d="M5 3v4M19 17v4M3 5h4M17 19h4" fill="none" stroke="currentColor" stroke-width="2" stroke-linecap="round"/>
    </symbol>
    <symbol id="icon-calendar" viewBox="0 0 24 24">
      <rect width="18" height="18" x="3" y="4" rx="2" fill="none" stroke="currentColor" stroke-width="2"/>
      <line x1="16" y1="2" x2="16" y2="6" stroke="currentColor" stroke-width="2" stroke-linecap="round"/>
      <line x1="8" y1="2" x2="8" y2="6" stroke="currentColor" stroke-width="2" stroke-linecap="round"/>
      <line x1="3" y1="10" x2="21" y2="10" stroke="currentColor" stroke-width="2"/>
    </symbol>
    <symbol id="icon-book-open" viewBox="0 0 24 24">
      <path d="M2 3h6a4 4 0 0 1 4 4v14a3 3 0 0 0-3-3H2z" fill="none" stroke="currentColor" stroke-width="2"/>
      <path d="M22 3h-6a4 4 0 0 0-4 4v14a3 3 0 0 1 3-3h7z" fill="none" stroke="currentColor" stroke-width="2"/>
    </symbol>
    <symbol id="icon-refresh-cw" viewBox="0 0 24 24">
      <path d="M3 12a9 9 0 0 1 9-9 9.75 9.75 0 0 1 6.74 2.74L21 8" fill="none" stroke="currentColor" stroke-width="2" stroke-linecap="round"/>
      <path d="M21 3v5h-5" fill="none" stroke="currentColor" stroke-width="2" stroke-linecap="round" stroke-linejoin="round"/>
      <path d="M21 12a9 9 0 0 1-9 9 9.75 9.75 0 0 1-6.74-2.74L3 16" fill="none" stroke="currentColor" stroke-width="2" stroke-linecap="round"/>
      <path d="M8 16H3v5" fill="none" stroke="currentColor" stroke-width="2" stroke-linecap="round" stroke-linejoin="round"/>
    </symbol>
    <symbol id="icon-pen" viewBox="0 0 24 24">
      <path d="M17 3a2.85 2.83 0 1 1 4 4L7.5 20.5 2 22l1.5-5.5Z" fill="none" stroke="currentColor" stroke-width="2" stroke-linecap="round" stroke-linejoin="round"/>
    </symbol>
    <symbol id="icon-wand" viewBox="0 0 24 24">
      <path d="M15 4V2M15 16v-2M8 9h2M20 9h2M17.8 11.8 19 13M15 9h.01M17.8 6.2 19 5M12 22l4-4" fill="none" stroke="currentColor" stroke-width="2" stroke-linecap="round" stroke-linejoin="round"/>
      <path d="m18 2 .5.5" fill="none" stroke="currentColor" stroke-width="2" stroke-linecap="round"/>
      <path d="M9.5 2 10 .5" fill="none" stroke="currentColor" stroke-width="2" stroke-linecap="round"/>
      <path d="m2 18 .5.5" fill="none" stroke="currentColor" stroke-width="2" stroke-linecap="round"/>
      <path d="M18 14l1.5-1.5" fill="none" stroke="currentColor" stroke-width="2" stroke-linecap="round"/>
    </symbol>
    <symbol id="icon-save" viewBox="0 0 24 24">
      <path d="M19 21H5a2 2 0 0 1-2-2V5a2 2 0 0 1 2-2h11l5 5v11a2 2 0 0 1-2 2z" fill="none" stroke="currentColor" stroke-width="2"/>
      <path d="M17 21v-8H7v8M7 3v5h8" fill="none" stroke="currentColor" stroke-width="2"/>
    </symbol>
    <symbol id="icon-cpu" viewBox="0 0 24 24">
      <rect width="16" height="16" x="4" y="4" rx="2" fill="none" stroke="currentColor" stroke-width="2"/>
      <rect width="6" height="6" x="9" y="9" rx="1" fill="none" stroke="currentColor" stroke-width="2"/>
      <path d="M15 2v2M15 20v2M2 15h2M2 9h2M20 15h2M20 9h2M9 2v2M9 20v2" fill="none" stroke="currentColor" stroke-width="2" stroke-linecap="round"/>
    </symbol>
    <symbol id="icon-rocket" viewBox="0 0 24 24">
      <path d="M4.5 16.5c-1.5 1.26-2 5-2 5s3.74-.5 5-2c.71-.84.7-2.13-.09-2.91a2.18 2.18 0 0 0-2.91-.09z" fill="none" stroke="currentColor" stroke-width="2" stroke-linecap="round" stroke-linejoin="round"/>
      <path d="m12 15-3-3a22 22 0 0 1 2-3.95A12.88 12.88 0 0 1 22 2c0 2.72-.78 7.5-6 11a22.35 22.35 0 0 1-4 2z" fill="none" stroke="currentColor" stroke-width="2" stroke-linecap="round" stroke-linejoin="round"/>
      <path d="M9 12H4s.55-3.03 2-4c1.62-1.08 5 0 5 0M12 15v5s3.03-.55 4-2c1.08-1.62 0-5 0-5" fill="none" stroke="currentColor" stroke-width="2" stroke-linecap="round" stroke-linejoin="round"/>
    </symbol>
  </defs>

  <!-- 背景 -->
  <rect width="820" height="380" fill="#0f172a" rx="12"/>

  <!-- 标题 -->
  <use href="#icon-gamepad" x="350" y="8" width="24" height="24" color="white"/>
  <text x="455" y="26" text-anchor="middle" fill="white" font-size="20" font-weight="bold">角色创建流程</text>

  <!-- 主菜单 -->
  <rect x="20" y="60" width="130" height="50" rx="25" fill="#1e293b" stroke="#6366f1" stroke-width="2"/>
  <use href="#icon-home" x="42" y="75" width="16" height="16" color="#a5b4fc"/>
  <text x="85" y="90" text-anchor="middle" fill="#a5b4fc" font-size="13" font-weight="600">主菜单</text>

  <!-- 箭头 -->
  <line x1="150" y1="85" x2="185" y2="85" stroke="#475569" stroke-width="2" marker-end="url(#arrow)"/>

  <!-- Step 1: 选择世界 -->
  <g transform="translate(190, 55)">
    <rect width="140" height="60" rx="8" fill="#1e293b" stroke="#8b5cf6" stroke-width="2" filter="url(#shadow)"/>
    <rect width="140" height="26" rx="8" fill="url(#stepGrad)"/>
    <text x="70" y="18" text-anchor="middle" fill="white" font-size="11" font-weight="bold">Step 1</text>
    <use href="#icon-globe" x="28" y="35" width="14" height="14" color="#c4b5fd"/>
    <text x="70" y="48" text-anchor="middle" fill="#c4b5fd" font-size="12" font-weight="600">选择世界</text>
  </g>

  <!-- 箭头 -->
  <line x1="330" y1="85" x2="365" y2="85" stroke="#475569" stroke-width="2" marker-end="url(#arrow)"/>

  <!-- Step 2: 角色创建 -->
  <g transform="translate(370, 55)">
    <rect width="140" height="60" rx="8" fill="#1e293b" stroke="#8b5cf6" stroke-width="2" filter="url(#shadow)"/>
    <rect width="140" height="26" rx="8" fill="url(#stepGrad)"/>
    <text x="70" y="18" text-anchor="middle" fill="white" font-size="11" font-weight="bold">Step 2</text>
    <use href="#icon-user" x="28" y="35" width="14" height="14" color="#c4b5fd"/>
    <text x="70" y="48" text-anchor="middle" fill="#c4b5fd" font-size="12" font-weight="600">角色创建</text>
  </g>

  <!-- 箭头 -->
  <line x1="510" y1="85" x2="545" y2="85" stroke="#475569" stroke-width="2" marker-end="url(#arrow)"/>

  <!-- Step 3: 人物经历 -->
  <g transform="translate(550, 55)">
    <rect width="140" height="60" rx="8" fill="#1e293b" stroke="#8b5cf6" stroke-width="2" filter="url(#shadow)"/>
    <rect width="140" height="26" rx="8" fill="url(#stepGrad)"/>
    <text x="70" y="18" text-anchor="middle" fill="white" font-size="11" font-weight="bold">Step 3</text>
    <use href="#icon-scroll-text" x="28" y="35" width="14" height="14" color="#c4b5fd"/>
    <text x="70" y="48" text-anchor="middle" fill="#c4b5fd" font-size="12" font-weight="600">人物经历</text>
  </g>

  <!-- 箭头 -->
  <line x1="690" y1="85" x2="725" y2="85" stroke="#475569" stroke-width="2" marker-end="url(#arrow)"/>

  <!-- Step 4: 确认 -->
  <g transform="translate(730, 55)">
    <rect width="80" height="60" rx="8" fill="#1e293b" stroke="#10b981" stroke-width="2" filter="url(#shadow)"/>
    <rect width="80" height="26" rx="8" fill="url(#startGrad)"/>
    <text x="40" y="18" text-anchor="middle" fill="white" font-size="11" font-weight="bold">Step 4</text>
    <use href="#icon-check-circle" x="20" y="35" width="14" height="14" color="#6ee7b7"/>
    <text x="50" y="48" text-anchor="middle" fill="#6ee7b7" font-size="12" font-weight="600">确认</text>
  </g>

  <!-- 详细说明 - Step 1 -->
  <g transform="translate(20, 140)">
    <rect width="185" height="210" rx="8" fill="#1e293b" stroke="#475569" stroke-width="1"/>
    <rect width="185" height="32" rx="8" fill="#8b5cf6" opacity="0.2"/>
    <use href="#icon-globe" x="15" y="10" width="14" height="14" color="#c4b5fd"/>
    <text x="38" y="24" text-anchor="start" fill="#c4b5fd" font-size="12" font-weight="600">选择世界</text>
    <use href="#icon-search" x="15" y="45" width="11" height="11" color="#94a3b8"/>
    <text x="32" y="54" fill="#94a3b8" font-size="10">搜索/过滤世界</text>
    <use href="#icon-eye" x="15" y="68" width="11" height="11" color="#94a3b8"/>
    <text x="32" y="77" fill="#94a3b8" font-size="10">查看世界详情</text>
    <use href="#icon-layout-grid" x="15" y="91" width="11" height="11" color="#94a3b8"/>
    <text x="32" y="100" fill="#94a3b8" font-size="10">概览/系统/经济/人物</text>
    <use href="#icon-plus" x="15" y="114" width="11" height="11" color="#94a3b8"/>
    <text x="32" y="123" fill="#94a3b8" font-size="10">支持自建世界</text>
    <use href="#icon-file-json" x="15" y="137" width="11" height="11" color="#94a3b8"/>
    <text x="32" y="146" fill="#94a3b8" font-size="10">JSON 导入/导出</text>
    <use href="#icon-database" x="15" y="170" width="11" height="11" color="#64748b"/>
    <text x="32" y="179" fill="#64748b" font-size="9">7 个内置世界</text>
    <text x="15" y="198" fill="#64748b" font-size="9">科幻/末日/武侠/校园/宫廷...</text>
  </g>

  <!-- 详细说明 - Step 2 -->
  <g transform="translate(220, 140)">
    <rect width="185" height="210" rx="8" fill="#1e293b" stroke="#475569" stroke-width="1"/>
    <rect width="185" height="32" rx="8" fill="#8b5cf6" opacity="0.2"/>
    <use href="#icon-user" x="15" y="10" width="14" height="14" color="#c4b5fd"/>
    <text x="38" y="24" text-anchor="start" fill="#c4b5fd" font-size="12" font-weight="600">角色创建</text>
    <use href="#icon-user-circle" x="15" y="45" width="11" height="11" color="#94a3b8"/>
    <text x="32" y="54" fill="#94a3b8" font-size="10">基本信息（姓名/年龄/性别）</text>
    <use href="#icon-briefcase" x="15" y="68" width="11" height="11" color="#94a3b8"/>
    <text x="32" y="77" fill="#94a3b8" font-size="10">身份信息（职业/阶层/组织）</text>
    <use href="#icon-bar-chart" x="15" y="91" width="11" height="11" color="#94a3b8"/>
    <text x="32" y="100" fill="#94a3b8" font-size="10">初始属性（模块数值）</text>
    <use href="#icon-swords" x="15" y="114" width="11" height="11" color="#94a3b8"/>
    <text x="32" y="123" fill="#94a3b8" font-size="10">初始技能/物品</text>
    <use href="#icon-users" x="15" y="137" width="11" height="11" color="#94a3b8"/>
    <text x="32" y="146" fill="#94a3b8" font-size="10">自建 NPC</text>
    <use href="#icon-sparkles" x="15" y="170" width="11" height="11" color="#f59e0b"/>
    <text x="32" y="179" fill="#f59e0b" font-size="9">AI 一键补全</text>
    <text x="15" y="198" fill="#64748b" font-size="9">useAiFill hook</text>
  </g>

  <!-- 详细说明 - Step 3 -->
  <g transform="translate(420, 140)">
    <rect width="185" height="210" rx="8" fill="#1e293b" stroke="#475569" stroke-width="1"/>
    <rect width="185" height="32" rx="8" fill="#8b5cf6" opacity="0.2"/>
    <use href="#icon-scroll-text" x="15" y="10" width="14" height="14" color="#c4b5fd"/>
    <text x="38" y="24" text-anchor="start" fill="#c4b5fd" font-size="12" font-weight="600">人物经历</text>
    <use href="#icon-calendar" x="15" y="45" width="11" height="11" color="#94a3b8"/>
    <text x="32" y="54" fill="#94a3b8" font-size="10">按年龄分段生成</text>
    <use href="#icon-book-open" x="15" y="68" width="11" height="11" color="#94a3b8"/>
    <text x="32" y="77" fill="#94a3b8" font-size="10">序章 + 各年龄段</text>
    <use href="#icon-refresh-cw" x="15" y="91" width="11" height="11" color="#94a3b8"/>
    <text x="32" y="100" fill="#94a3b8" font-size="10">每段可单独重新生成</text>
    <use href="#icon-pen" x="15" y="114" width="11" height="11" color="#94a3b8"/>
    <text x="32" y="123" fill="#94a3b8" font-size="10">支持手写草稿</text>
    <use href="#icon-wand" x="15" y="137" width="11" height="11" color="#94a3b8"/>
    <text x="32" y="146" fill="#94a3b8" font-size="10">根据草稿 AI 生成</text>
    <use href="#icon-sparkles" x="15" y="170" width="11" height="11" color="#f59e0b"/>
    <text x="32" y="179" fill="#f59e0b" font-size="9">一键生成全部</text>
    <text x="15" y="198" fill="#64748b" font-size="9">useCharacterHistory hook</text>
  </g>

  <!-- 详细说明 - Step 4 -->
  <g transform="translate(620, 140)">
    <rect width="185" height="210" rx="8" fill="#1e293b" stroke="#475569" stroke-width="1"/>
    <rect width="185" height="32" rx="8" fill="#10b981" opacity="0.2"/>
    <use href="#icon-check-circle" x="15" y="10" width="14" height="14" color="#6ee7b7"/>
    <text x="38" y="24" text-anchor="start" fill="#6ee7b7" font-size="12" font-weight="600">确认开始</text>
    <use href="#icon-user" x="15" y="45" width="11" height="11" color="#94a3b8"/>
    <text x="32" y="54" fill="#94a3b8" font-size="10">角色状态摘要</text>
    <use href="#icon-users" x="15" y="68" width="11" height="11" color="#94a3b8"/>
    <text x="32" y="77" fill="#94a3b8" font-size="10">自建 NPC 列表</text>
    <use href="#icon-eye" x="15" y="91" width="11" height="11" color="#94a3b8"/>
    <text x="32" y="100" fill="#94a3b8" font-size="10">开局内容预览</text>
    <use href="#icon-save" x="15" y="120" width="11" height="11" color="#94a3b8"/>
    <text x="32" y="129" fill="#94a3b8" font-size="10">命名存档</text>
    <use href="#icon-cpu" x="15" y="143" width="11" height="11" color="#94a3b8"/>
    <text x="32" y="152" fill="#94a3b8" font-size="10">初始化游戏引擎</text>
    <use href="#icon-rocket" x="15" y="170" width="11" height="11" color="#10b981"/>
    <text x="32" y="179" fill="#10b981" font-size="9">开始冒险</text>
    <text x="15" y="198" fill="#64748b" font-size="9">navigate('game')</text>
  </g>
</svg>
